<?xml version="1.0" encoding="UTF-8" standalone="no"?>
<svg
   width="256"
   height="256"
   version="1.1"
   id="svg1"
   sodipodi:docname="github.svg"
   inkscape:version="1.3.2 (091e20e, 2023-11-25, custom)"
   xmlns:inkscape="http://www.inkscape.org/namespaces/inkscape"
   xmlns:sodipodi="http://sodipodi.sourceforge.net/DTD/sodipodi-0.dtd"
   xmlns="http://www.w3.org/2000/svg"
   xmlns:svg="http://www.w3.org/2000/svg">
  <defs
     id="defs1" />
  <sodipodi:namedview
     id="namedview1"
     pagecolor="#505050"
     bordercolor="#eeeeee"
     borderopacity="1"
     inkscape:showpageshadow="0"
     inkscape:pageopacity="0"
     inkscape:pagecheckerboard="0"
     inkscape:deskcolor="#505050"
     showguides="true"
     inkscape:zoom="3.0546875"
     inkscape:cx="159.59079"
     inkscape:cy="149.44246"
     inkscape:window-width="2560"
     inkscape:window-height="1369"
     inkscape:window-x="-8"
     inkscape:window-y="-8"
     inkscape:window-maximized="1"
     inkscape:current-layer="svg1" />
  <path
     fill-rule="evenodd"
     clip-rule="evenodd"
     d="M 128.10591,2.1329346 C 57.266651,2.1329346 -2.4278147e-6,59.821765 -2.4278147e-6,131.19071 c 0,57.04901 36.6927184278147,105.3398 87.5952444278147,122.43143 6.364127,1.28489 8.69528,-2.77693 8.69528,-6.19368 0,-2.99196 -0.209778,-13.24746 -0.209778,-23.933 -35.635963,7.69359 -43.056845,-15.38456 -43.056845,-15.38456 -5.726927,-14.95714 -14.21243,-18.80132 -14.21243,-18.80132 -11.663632,-7.90599 0.8496,-7.90599 0.8496,-7.90599 12.938031,0.85485 19.726957,13.24745 19.726957,13.24745 11.451233,19.65616 29.903792,14.1023 37.327296,10.68293 1.059376,-8.33342 4.455148,-14.1023 8.060708,-17.30665 -28.422243,-2.99195 -58.326035,-14.1023 -58.326035,-63.67536 0,-14.1023 5.087106,-25.640057 13.147809,-34.613292 -1.271777,-3.204352 -5.726928,-16.454428 1.274399,-34.188499 0,0 10.816655,-3.419374 35.205919,13.247454 a 123.16565,123.16565 0 0 1 32.027788,-4.274218 c 10.81666,0 21.84309,1.497287 32.02517,4.274218 24.39189,-16.666828 35.20854,-13.247454 35.20854,-13.247454 7.00133,17.734071 2.54356,30.984147 1.27178,34.188499 8.2731,8.973235 13.15043,20.510992 13.15043,34.613292 0,49.57306 -29.90379,60.46838 -58.53843,63.67536 4.66755,4.05919 8.69528,11.75016 8.69528,23.93037 0,17.30665 -0.20978,31.19655 -0.20978,35.46815 0,3.41937 2.33378,7.48119 8.69528,6.19892 50.90253,-17.09687 87.59525,-65.38504 87.59525,-122.43405 C 256.20921,59.821765 198.73277,2.1329346 128.10591,2.1329346 Z"
     fill="#ffffff"
     id="path1"
     style="stroke-width:2.62222" />
</svg>
