<?xml version="1.0" encoding="UTF-8" standalone="no"?>
<!-- Created with Inkscape (http://www.inkscape.org/) -->

<svg
   width="92.676201mm"
   height="8.1156235mm"
   viewBox="0 0 92.676201 8.1156234"
   version="1.1"
   id="svg1"
   inkscape:version="1.3.2 (091e20e, 2023-11-25, custom)"
   sodipodi:docname="squiggle-underline.svg"
   xmlns:inkscape="http://www.inkscape.org/namespaces/inkscape"
   xmlns:sodipodi="http://sodipodi.sourceforge.net/DTD/sodipodi-0.dtd"
   xmlns="http://www.w3.org/2000/svg"
   xmlns:svg="http://www.w3.org/2000/svg">
  <sodipodi:namedview
     id="namedview1"
     pagecolor="#505050"
     bordercolor="#eeeeee"
     borderopacity="1"
     inkscape:showpageshadow="0"
     inkscape:pageopacity="0"
     inkscape:pagecheckerboard="0"
     inkscape:deskcolor="#505050"
     inkscape:document-units="mm"
     inkscape:zoom="4.1798822"
     inkscape:cx="156.10488"
     inkscape:cy="18.06271"
     inkscape:window-width="2560"
     inkscape:window-height="1369"
     inkscape:window-x="-8"
     inkscape:window-y="-8"
     inkscape:window-maximized="1"
     inkscape:current-layer="layer1" />
  <defs
     id="defs1" />
  <g
     inkscape:label="Layer 1"
     inkscape:groupmode="layer"
     id="layer1"
     transform="translate(-29.123018,-128.57393)">
    <path
       id="path1"
       style="fill:#172433;fill-opacity:1;stroke-width:2.40555;stroke-linecap:round"
       d="m 120.14989,128.5869 c -1.54264,-0.0628 -3.11432,0.12356 -4.66277,0.11059 -2.20913,0.0768 -4.41844,0.10782 -6.62905,0.13487 -4.30622,0.0527 -8.61306,0.0805 -12.919623,0.0971 -10.873854,0.036 -21.747993,0.0402 -32.621782,0.0935 -2.772702,0.0114 -6.802019,0.0296 -9.59993,0.0356 -2.670586,0.006 -5.342102,-0.0323 -8.012431,-0.0625 -0.959998,-0.0109 -1.919946,-0.0242 -2.879928,-0.0362 -4.566206,-0.0229 -9.134598,-0.0162 -13.698905,-0.16019 -0.148185,0.84538 6.467432,1.79209 6.615617,0.94671 3.096512,-0.2099 3.344325,-0.14935 4.495333,-0.1587 5.526721,-0.0327 11.053741,-0.0438 16.580383,-0.0868 3.033556,-0.0236 6.066813,-0.072 9.10022,-0.10801 10.718308,-0.13844 21.437465,-0.16506 32.156693,-0.15813 5.028393,0.02 10.057573,0.0323 15.085903,0.0868 -0.65788,0.1275 -1.31759,0.24767 -1.97973,0.35553 -2.65117,0.43192 -4.01624,0.58534 -6.76547,0.94413 -6.062826,0.72636 -12.159143,1.20283 -18.259872,1.57665 -3.20411,0.19633 -5.687586,0.31023 -8.879045,0.46819 -5.976768,0.29377 -11.95815,0.49359 -17.942057,0.61546 -0.727605,-0.0355 -2.445866,-0.25098 -2.066151,0.11965 1.160108,1.13235 2.36107,0.86356 3.855706,0.91802 3.883359,0.14148 2.716221,0.0966 6.647139,0.28938 3.029275,0.15581 6.058654,0.31071 9.086268,0.49145 0.785602,0.0469 1.702512,0.10568 2.605525,0.17156 -1.134062,0.0679 -2.358446,0.12594 -3.432865,0.17415 -1.766089,0.0669 -3.532555,0.1271 -5.298902,0.1881 -0.120478,0.71601 5.482798,1.48599 5.603276,0.76998 1.509368,-0.12727 3.020756,-0.22863 4.53564,-0.2868 3.42645,-0.14382 0.953781,-0.0467 4.466911,-0.16692 0.769174,-0.0263 2.770339,0.0786 3.520199,-0.53433 0.356929,-0.29176 -1.285142,-1.28066 -1.270724,-0.6196 -5.290633,-0.28067 -10.590347,-0.40602 -15.878617,-0.72812 -1.708734,-0.11153 -2.663776,-0.17485 -3.724837,-0.25942 4.149109,-0.2227 8.298869,-0.44058 12.444718,-0.70951 9.109464,-0.56892 18.219596,-1.15813 27.299628,-2.04226 3.63442,-0.365 7.26761,-0.73874 10.89856,-1.13119 0.73659,-0.0796 1.52615,0.0172 2.20865,-0.24547 0.40897,-0.15741 1.28258,-0.85065 0.84697,-0.93069 -0.50581,-0.093 -1.01644,-0.14185 -1.53065,-0.16278 z"
       sodipodi:nodetypes="ccsccccccccccccccsccscccccccccscccccscssc" />
  </g>
</svg>
