<?xml version="1.0" encoding="UTF-8" standalone="no"?>
<svg
   viewBox="409.289 277.787 256.00001 256"
   width="256"
   height="256"
   version="1.1"
   id="svg10"
   sodipodi:docname="youtube.svg"
   inkscape:version="1.3.2 (091e20e, 2023-11-25, custom)"
   xmlns:inkscape="http://www.inkscape.org/namespaces/inkscape"
   xmlns:sodipodi="http://sodipodi.sourceforge.net/DTD/sodipodi-0.dtd"
   xmlns="http://www.w3.org/2000/svg"
   xmlns:svg="http://www.w3.org/2000/svg">
  <defs
     id="defs10" />
  <sodipodi:namedview
     id="namedview10"
     pagecolor="#505050"
     bordercolor="#eeeeee"
     borderopacity="1"
     inkscape:showpageshadow="0"
     inkscape:pageopacity="0"
     inkscape:pagecheckerboard="0"
     inkscape:deskcolor="#505050"
     inkscape:zoom="3.2324219"
     inkscape:cx="126.6852"
     inkscape:cy="71.618127"
     inkscape:window-width="2560"
     inkscape:window-height="1369"
     inkscape:window-x="-8"
     inkscape:window-y="-8"
     inkscape:window-maximized="1"
     inkscape:current-layer="svg10"
     showguides="true" />
  <path
     id="path1"
     style="fill:#ffffff;fill-opacity:1;stroke-width:8.96041"
     class="style-scope yt-icon"
     d="m 537.28746,316.18287 c 0,0 -80.05616,1.6e-4 -100.01267,5.35279 -11.0213,2.95028 -19.68272,11.61161 -22.633,22.633 -5.35263,19.95642 -5.35279,61.61834 -5.35279,61.61834 0,0 1.6e-4,41.66173 5.35279,61.61834 2.95028,11.0213 11.6117,19.68324 22.633,22.63301 19.95651,5.35294 100.01267,5.35278 100.01267,5.35278 0,0 80.06004,1.6e-4 100.01575,-5.35278 11.0213,-2.94977 19.68324,-11.61171 22.63299,-22.63301 5.35296,-19.95661 5.3528,-61.61834 5.3528,-61.61834 0,0 -0.0213,-41.66192 -5.3528,-61.61834 -2.94975,-11.02139 -11.61169,-19.68272 -22.63299,-22.633 -19.95571,-5.35263 -100.01575,-5.35279 -100.01575,-5.35279 z m -25.62174,51.21286 66.50567,38.39433 -66.50567,38.39433 z" />
</svg>
